<svg xmlns="http://www.w3.org/2000/svg" xmlns:xlink="http://www.w3.org/1999/xlink" width="67.562" height="81.776" viewBox="0 0 67.562 81.776"><defs><style>.a,.b{opacity:0.8;}.a{fill:url(#a);}.b{fill:url(#b);}</style><linearGradient id="a" x1="-0.031" y1="-0.51" x2="0.644" y2="0.773" gradientUnits="objectBoundingBox"><stop offset="0.181" stop-color="#001bff"/><stop offset="0.667" stop-color="#0c3aff" stop-opacity="0.871"/><stop offset="1" stop-color="#134cff" stop-opacity="0.8"/></linearGradient><linearGradient id="b" x1="0.428" y1="1.124" x2="0.541" y2="-0.117" gradientUnits="objectBoundingBox"><stop offset="0" stop-color="#001bff"/><stop offset="0.092" stop-color="#001bff"/><stop offset="0.851" stop-color="#093eff" stop-opacity="0.8"/><stop offset="1" stop-color="#093eff" stop-opacity="0.8"/></linearGradient></defs><g transform="translate(-92 -18.124)"><path class="a" d="M578.853,1372.726l40.507-21.947a6.139,6.139,0,0,0,2.921-5.482l-.183-32.745c-.019-3.281-2.229-5.928-4.949-5.928H576.591c-2.744,0-4.964,2.69-4.949,6l.233,54.691C571.892,1371.628,575.588,1374.495,578.853,1372.726Z" transform="translate(-479.642 -1288.5)"/><path class="b" d="M591.621,1384.465l40.507-21.948a6.138,6.138,0,0,0,2.921-5.481l-.183-32.746c-.017-3.281-2.229-5.928-4.95-5.928H589.359c-2.744,0-4.964,2.69-4.95,6l.233,54.691C584.659,1383.369,588.355,1386.234,591.621,1384.465Z" transform="translate(-475.486 -1285.096)"/></g></svg>