<svg xmlns="http://www.w3.org/2000/svg" xmlns:xlink="http://www.w3.org/1999/xlink" width="109" height="109" viewBox="0 0 109 109">
  <defs>
    <linearGradient id="linear-gradient" x1="-0.031" y1="-0.51" x2="0.644" y2="0.773" gradientUnits="objectBoundingBox">
      <stop offset="0.181" stop-color="#001bff"/>
      <stop offset="0.667" stop-color="#0c3aff" stop-opacity="0.871"/>
      <stop offset="1" stop-color="#134cff" stop-opacity="0.8"/>
    </linearGradient>
    <linearGradient id="linear-gradient-2" x1="0.428" y1="1.124" x2="0.541" y2="-0.117" gradientUnits="objectBoundingBox">
      <stop offset="0" stop-color="#001bff"/>
      <stop offset="0.092" stop-color="#001bff"/>
      <stop offset="0.851" stop-color="#093eff" stop-opacity="0.8"/>
      <stop offset="1" stop-color="#093eff" stop-opacity="0.8"/>
    </linearGradient>
  </defs>
  <g id="组_5749" data-name="组 5749" transform="translate(-2658 1478)">
    <rect id="矩形_4293" data-name="矩形 4293" width="109" height="109" transform="translate(2658 -1478)" fill="none"/>
    <g id="textr.ef398456" transform="translate(2587 -1482.128)">
      <path id="路径_6233" data-name="路径 6233" d="M578.853,1372.73l40.507-21.947a6.139,6.139,0,0,0,2.921-5.482l-.183-32.745c-.019-3.281-2.229-5.928-4.949-5.928H576.591c-2.744,0-4.964,2.69-4.949,6l.233,54.691C571.892,1371.63,575.588,1374.49,578.853,1372.73Z" transform="translate(-479.642 -1288.5)" opacity="0.8" fill="url(#linear-gradient)"/>
      <path id="路径_6234" data-name="路径 6234" d="M591.621,1384.46l40.507-21.948a6.138,6.138,0,0,0,2.921-5.481l-.183-32.746c-.017-3.281-2.229-5.928-4.95-5.928H589.359c-2.744,0-4.964,2.69-4.95,6l.233,54.691C584.659,1383.37,588.355,1386.23,591.621,1384.46Z" transform="translate(-475.486 -1285.096)" opacity="0.8" fill="url(#linear-gradient-2)"/>
    </g>
  </g>
</svg>
