<svg xmlns="http://www.w3.org/2000/svg" xmlns:xlink="http://www.w3.org/1999/xlink" width="44" height="44" viewBox="0 0 44 44">
  <defs>
    <clipPath id="clip-path">
      <rect id="矩形_790" data-name="矩形 790" width="44" height="44" transform="translate(15015 6781)" fill="#fff" stroke="#707070" stroke-width="1"/>
    </clipPath>
  </defs>
  <g id="蒙版组_10" data-name="蒙版组 10" transform="translate(-15015 -6781)" clip-path="url(#clip-path)">
    <g id="Index-Logo_112x36" transform="translate(15017.313 6784.826)">
      <path id="路径_3177" data-name="路径 3177" d="M78.869,26.963a2.7,2.7,0,0,0-1.45-.388,2.279,2.279,0,0,0-1.113.259,2.157,2.157,0,0,0-.777.673l-.155-.828h-1.45v8.44h1.657V31.986a2.183,2.183,0,0,0,1.838.828,2.7,2.7,0,0,0,1.45-.388,2.927,2.927,0,0,0,1.01-1.087,3.6,3.6,0,0,0,.362-1.631,3.8,3.8,0,0,0-.362-1.657A2.562,2.562,0,0,0,78.869,26.963Zm-.751,3.987a1.448,1.448,0,0,1-2.175,0,1.963,1.963,0,0,1-.414-1.269,1.873,1.873,0,0,1,.414-1.269,1.448,1.448,0,0,1,2.175,0,2.15,2.15,0,0,1,0,2.537Z" transform="translate(2.603 0.945)" fill="#666"/>
      <path id="路径_3178" data-name="路径 3178" d="M82.63,26.65H80.973v6.084H82.63Z" transform="translate(2.854 0.947)" fill="#666"/>
      <path id="路径_3179" data-name="路径 3179" d="M81.757,23.95a1.128,1.128,0,0,0-.751.285.886.886,0,0,0-.233.725,1.063,1.063,0,0,0,.285.725,1.1,1.1,0,0,0,1.476,0,.92.92,0,0,0,.285-.725,1.117,1.117,0,0,0-.337-.725A.974.974,0,0,0,81.757,23.95Z" transform="translate(2.847 0.851)" fill="#666"/>
      <path id="路径_3180" data-name="路径 3180" d="M87.37,26.575a2.847,2.847,0,0,0-1.113.207,2.232,2.232,0,0,0-.777.621l-.155-.751h-1.45v6.084h1.657V29.63a2.024,2.024,0,0,1,.362-1.243,1.238,1.238,0,0,1,1.01-.44c.828,0,1.243.518,1.243,1.579v3.21H89.8V29.449a2.993,2.993,0,0,0-.7-2.2A2.382,2.382,0,0,0,87.37,26.575Z" transform="translate(2.957 0.945)" fill="#666"/>
      <path id="路径_3181" data-name="路径 3181" d="M102.036,26.937a3.6,3.6,0,0,0-1.631-.362,3.273,3.273,0,0,0-1.6.388,2.746,2.746,0,0,0-1.087,1.087,3.674,3.674,0,0,0,0,3.288,2.718,2.718,0,0,0,1.139,1.087,3.757,3.757,0,0,0,1.76.388,3.244,3.244,0,0,0,1.372-.285,2.347,2.347,0,0,0,.958-.751,2.2,2.2,0,0,0,.44-1.01h-1.657a.947.947,0,0,1-.414.57,1.5,1.5,0,0,1-.854.207,1.366,1.366,0,0,1-1.009-.388,1.64,1.64,0,0,1-.414-1.036V30.07h4.4a3.571,3.571,0,0,0,.052-.57,3.019,3.019,0,0,0-.414-1.553A2.439,2.439,0,0,0,102.036,26.937Zm-2.925,2.045a1.286,1.286,0,0,1,1.346-1.165,1.351,1.351,0,0,1,.932.311,1.394,1.394,0,0,1,.466.854Z" transform="translate(3.435 0.945)" fill="#666"/>
      <path id="路径_3182" data-name="路径 3182" d="M107.542,26.65a2.255,2.255,0,0,0-1.087.233,2.088,2.088,0,0,0-.673.673l-.155-.906h-1.5v6.084h1.657V29.757a1.784,1.784,0,0,1,.337-1.165,1.241,1.241,0,0,1,1.036-.414h.673v-1.5h-.285Z" transform="translate(3.677 0.947)" fill="#666"/>
      <path id="路径_3183" data-name="路径 3183" d="M95.136,27.507a2.228,2.228,0,0,0-1.89-.932,2.763,2.763,0,0,0-1.45.388,2.562,2.562,0,0,0-1.01,1.087,3.572,3.572,0,0,0-.362,1.605,3.417,3.417,0,0,0,.362,1.605,2.361,2.361,0,0,0,1.01,1.061,2.7,2.7,0,0,0,1.45.388,2.323,2.323,0,0,0,1.89-.828v.725a1.5,1.5,0,0,1-2.848.621H90.605A2.715,2.715,0,0,0,93.582,35.4c1.942,0,3.158-.88,3.158-2.8V26.7H95.265ZM94.7,30.9a1.337,1.337,0,0,1-1.087.466,1.41,1.41,0,0,1-1.087-.466,1.889,1.889,0,0,1-.414-1.243,1.761,1.761,0,0,1,.414-1.243,1.393,1.393,0,0,1,1.087-.492,1.35,1.35,0,0,1,1.087.492,1.94,1.94,0,0,1,.414,1.243A1.889,1.889,0,0,1,94.7,30.9Z" transform="translate(3.19 0.945)" fill="#666"/>
      <path id="路径_3184" data-name="路径 3184" d="M62.054,25.375v2.77h.026a1.365,1.365,0,0,1,.673-.647,2.638,2.638,0,0,1,1.036-.207,2.4,2.4,0,0,1,1.087.233,2.293,2.293,0,0,1,.777.621,2.735,2.735,0,0,1,.466.906,3.883,3.883,0,0,1,0,2.175,2.609,2.609,0,0,1-.466.88,2.226,2.226,0,0,1-.777.6,2.359,2.359,0,0,1-1.061.207,2.883,2.883,0,0,1-.44-.052,4.666,4.666,0,0,1-.492-.129,1.238,1.238,0,0,1-.44-.259,1.742,1.742,0,0,1-.362-.388h-.026v.725h-.88V25.4h.88Zm3.158,3.961a2.13,2.13,0,0,0-.311-.647,1.426,1.426,0,0,0-.518-.44,1.69,1.69,0,0,0-.751-.155,1.4,1.4,0,0,0-.751.181,1.5,1.5,0,0,0-.518.466,1.829,1.829,0,0,0-.285.647,3.451,3.451,0,0,0-.078.725,2.394,2.394,0,0,0,.1.751,1.829,1.829,0,0,0,.285.647,1.426,1.426,0,0,0,.518.44,1.719,1.719,0,0,0,.777.181,1.292,1.292,0,0,0,.751-.181,1.7,1.7,0,0,0,.492-.466,1.742,1.742,0,0,0,.259-.673,3.762,3.762,0,0,0,.078-.777A1.293,1.293,0,0,0,65.212,29.336Z" transform="translate(2.15 0.902)" fill="#666"/>
      <path id="路径_3185" data-name="路径 3185" d="M68.968,33.434a5.6,5.6,0,0,1-.311.673,1.517,1.517,0,0,1-.337.44,1.391,1.391,0,0,1-.414.259,1.557,1.557,0,0,1-.518.078,1.261,1.261,0,0,1-.311-.026,1.365,1.365,0,0,1-.311-.078v-.8c.078.026.155.052.259.078a.971.971,0,0,0,.259.026.741.741,0,0,0,.44-.129.813.813,0,0,0,.285-.362l.362-.906L66.25,27.35h.984l1.553,4.375h.026l1.5-4.375h.932Z" transform="translate(2.331 0.972)" fill="#666"/>
      <path id="路径_3186" data-name="路径 3186" d="M112.515,19.125h-.259l-.7,1.683-.7-1.683h-.311v2.1h.259V19.669l.647,1.553h.207l.647-1.553v1.553h.259v-2.1Z" transform="translate(3.905 0.68)"/>
      <path id="路径_3187" data-name="路径 3187" d="M108.623,19.358h.7v1.864h.259V19.358h.673v-.233h-1.631Z" transform="translate(3.837 0.68)"/>
      <path id="路径_3188" data-name="路径 3188" d="M59.887,8.15a5.667,5.667,0,0,0-2.434.466,4.892,4.892,0,0,0-1.683,1.32l-.337-1.657H52.275V21.586H55.9V14.777a4.169,4.169,0,0,1,.777-2.692,2.636,2.636,0,0,1,2.2-.958c1.786,0,2.692,1.139,2.692,3.443v7.016h3.624V14.363c0-2.226-.492-3.832-1.476-4.789A5.433,5.433,0,0,0,59.887,8.15Z" transform="translate(1.834 0.29)"/>
      <path id="路径_3189" data-name="路径 3189" d="M76.526,10.123a4.786,4.786,0,0,0-4.013-1.812,6.347,6.347,0,0,0-3.184.828,5.764,5.764,0,0,0-2.2,2.382,7.886,7.886,0,0,0-.777,3.573,7.921,7.921,0,0,0,.777,3.6,5.611,5.611,0,0,0,2.2,2.382,5.938,5.938,0,0,0,3.158.828,4.965,4.965,0,0,0,4.142-1.993l.362,1.838H80.15V3.625H76.526ZM75.7,17.916a2.942,2.942,0,0,1-2.356,1.061,3.031,3.031,0,0,1-2.382-1.061,4.147,4.147,0,0,1-.906-2.77,4.147,4.147,0,0,1,.906-2.77,2.994,2.994,0,0,1,2.382-1.061A2.942,2.942,0,0,1,75.7,12.375a4.161,4.161,0,0,1,.88,2.8A4.252,4.252,0,0,1,75.7,17.916Z" transform="translate(2.334 0.129)"/>
      <path id="路径_3190" data-name="路径 3190" d="M91.63,8.952a7.886,7.886,0,0,0-3.573-.777A7.367,7.367,0,0,0,84.536,9a5.8,5.8,0,0,0-2.356,2.382,7.356,7.356,0,0,0-.854,3.624,7.324,7.324,0,0,0,.854,3.6,5.815,5.815,0,0,0,2.485,2.382,8.48,8.48,0,0,0,3.857.829,7.438,7.438,0,0,0,3.029-.6,5.488,5.488,0,0,0,2.123-1.683,5.019,5.019,0,0,0,1.01-2.382h-3.6a2.357,2.357,0,0,1-.984,1.424,3.435,3.435,0,0,1-1.864.492,2.968,2.968,0,0,1-2.2-.828,3.531,3.531,0,0,1-.932-2.278v-.1h9.657a6.023,6.023,0,0,0,.1-1.243,6.558,6.558,0,0,0-.906-3.391A4.974,4.974,0,0,0,91.63,8.952ZM85.261,13.4a2.761,2.761,0,0,1,.984-1.864,3,3,0,0,1,2.019-.7,3.209,3.209,0,0,1,2.071.673,2.752,2.752,0,0,1,.984,1.864H85.261Z" transform="translate(2.867 0.291)"/>
      <path id="路径_3191" data-name="路径 3191" d="M49.675,8.3H46.051V21.607h3.624Z" transform="translate(1.612 0.295)"/>
      <path id="路径_3192" data-name="路径 3192" d="M47.876,7.071a2.108,2.108,0,0,0,1.553-.621,2.049,2.049,0,0,0,.621-1.527,1.992,1.992,0,0,0-.621-1.5,2.324,2.324,0,0,0-3.107,0,1.992,1.992,0,0,0-.621,1.5,2.123,2.123,0,0,0,2.175,2.149Z" transform="translate(1.6 0.1)"/>
      <path id="路径_3193" data-name="路径 3193" d="M104.018,21.607l-3.055-4.168-3.029,4.168H94.025l4.945-6.783L94.258,8.3h4.168l2.77,3.935L104.018,8.3h3.909l-4.686,6.524,4.945,6.783Z" transform="translate(3.318 0.295)" fill-rule="evenodd"/>
      <path id="路径_3194" data-name="路径 3194" d="M19.339,0a18.634,18.634,0,0,0-6.731,36.011V32.568c0-2.382.078-4.634.181-5.929a6.142,6.142,0,0,1,6.55-5.954,6.142,6.142,0,0,1,6.55,5.954c.129,1.269.181,3.547.181,5.929v3.443A18.634,18.634,0,0,0,19.339,0Zm0,18.329a6.213,6.213,0,1,1,6.213-6.213A6.2,6.2,0,0,1,19.339,18.329Z" fill="#4078ff"/>
    </g>
  </g>
</svg>
